<svg xmlns="http://www.w3.org/2000/svg" fill-rule="evenodd" stroke-linejoin="round" stroke-miterlimit="2" clip-rule="evenodd" viewBox="0 0 64 64"><g transform="translate(-448 -192)"><circle cx="76.383" cy="76.383" r="8.383" fill="#ff6c5c" transform="translate(427.109 151.109) scale(.95427)"/><path fill="#e0e0e0" d="M75.109,72.336C74.496,71.927 73.707,71.889 73.056,72.237C72.406,72.585 72,73.262 72,74L72,78C72,78.738 72.406,79.415 73.056,79.763C73.707,80.111 74.496,80.073 75.109,79.664L78.109,77.664C78.666,77.293 79,76.669 79,76C79,75.331 78.666,74.707 78.109,74.336L75.109,72.336Z" transform="translate(425 148)"/><path fill="#1397e1" d="M340,112C340,109.791 338.209,108 336,108L328,108C325.791,108 324,109.791 324,112L324,120C324,122.209 325.791,124 328,124L336,124C338.209,124 340,122.209 340,120L340,112Z" transform="translate(160 88)"/><path fill="#ff926b" d="M252,91.2C252,89.433 250.653,88 248.991,88L242.974,88C241.312,88 239.965,89.433 239.965,91.2L239.965,97.6C239.965,99.367 241.312,100.8 242.974,100.8L248.991,100.8C250.653,100.8 252,99.367 252,97.6L252,91.2Z" transform="matrix(-1.32942 0 0 1.25 819.015 126)"/><circle cx="468" cy="236" r="16" fill="#e0e0e0" transform="translate(0 -12)"/><path fill="#ffce4b" d="M463.414,231.414C463.414,231.414 464.294,230.535 465.181,229.647C466.364,228.464 467.888,227.682 469.538,227.41C472.07,226.993 475.586,226.414 475.586,226.414L465.586,216.414C465.586,216.414 465.007,219.93 464.59,222.462C464.318,224.112 463.536,225.636 462.353,226.819C461.465,227.706 460.586,228.586 460.586,228.586C459.805,229.366 459.805,230.634 460.586,231.414C461.366,232.195 462.634,232.195 463.414,231.414Z" transform="translate(-1)"/><path fill="#ff6c5c" d="M467.586,214.414L477.586,224.414C478.366,225.195 479.634,225.195 480.414,224.414C481.195,223.634 481.195,222.366 480.414,221.586L470.414,211.586C469.634,210.805 468.366,210.805 467.586,211.586C466.805,212.366 466.805,213.634 467.586,214.414Z" transform="translate(-3 2)"/><path fill="#ff6c5c" d="M463.657,225.104C463.304,225.728 462.866,226.305 462.353,226.819C461.465,227.706 460.586,228.586 460.586,228.586C459.805,229.366 459.805,230.634 460.586,231.414C461.366,232.195 462.634,232.195 463.414,231.414C463.414,231.414 464.294,230.535 465.181,229.647C465.629,229.199 466.126,228.809 466.66,228.482L463.657,225.104Z" transform="translate(-1)"/><path fill="#ffce4b" d="M466.66,228.482C466.126,228.809 465.629,229.199 465.181,229.647L463.679,231.149L466.505,234.329C467.238,235.154 468.504,235.228 469.329,234.495C470.154,233.762 470.228,232.496 469.495,231.671L466.66,228.482Z" transform="translate(-1)"/><path fill="#2dcc70" d="M487.008,236.124C485.625,236.477 484.53,237.55 484.147,238.921L479.926,234.662C480.83,233.652 481.608,232.526 482.234,231.309L487.008,236.124ZM492.252,222C492.088,222.639 492,223.309 492,224C492,224.691 492.088,225.361 492.252,226L483.876,226C483.958,225.345 484,224.677 484,224C484,223.323 483.958,222.655 483.876,222L492.252,222ZM484.124,208.992C484.477,210.375 485.55,211.469 486.92,211.852L482.168,216.564C481.533,215.357 480.748,214.241 479.838,213.241L484.124,208.992Z"/><circle cx="116" cy="76" r="4" fill="#ffc29b" transform="matrix(-1 0 0 1 608 168)"/><path d="M75.664,71.504C74.744,70.89 73.56,70.833 72.584,71.355C71.609,71.877 71,72.894 71,74L71,78C71,79.106 71.609,80.123 72.584,80.645C73.56,81.167 74.744,81.11 75.664,80.496C75.664,80.496 78.664,78.496 78.664,78.496C79.499,77.94 80,77.003 80,76C80,74.997 79.499,74.06 78.664,73.504C78.664,73.504 75.664,71.504 75.664,71.504ZM74.555,73.168L77.555,75.168C77.833,75.353 78,75.666 78,76C78,76.334 77.833,76.647 77.555,76.832C77.555,76.832 74.555,78.832 74.555,78.832C74.248,79.037 73.853,79.056 73.528,78.882C73.203,78.708 73,78.369 73,78C73,78 73,74 73,74C73,73.631 73.203,73.292 73.528,73.118C73.853,72.944 74.248,72.963 74.555,73.168Z" transform="translate(425 148)"/><path fill="#e0e0e0" d="M327,114L327,120C327,120.552 327.448,121 328,121C328.552,121 329,120.552 329,120L329,117L332,117C332.552,117 333,116.552 333,116C333,115.448 332.552,115 332,115L329,115L329,114C329,113.448 329.448,113 330,113C331,113 332,113 332,113C332.552,113 333,112.552 333,112C333,111.448 332.552,111 332,111C332,111 331,111 330,111C328.343,111 327,112.343 327,114Z" transform="translate(162 88)"/><path d="M462.585,232.548L464.758,234.993C465.858,236.231 467.756,236.342 468.993,235.242C470.231,234.142 470.343,232.244 469.243,231.007L467.273,228.791C467.731,228.611 468.21,228.478 468.701,228.397L474.303,227.474C475.471,228.277 477.084,228.159 478.122,227.121C479.293,225.951 479.293,224.049 478.122,222.879C478.122,222.879 468.122,212.879 468.122,212.879C466.951,211.708 465.05,211.708 463.879,212.879C462.841,213.917 462.723,215.529 463.526,216.697L462.603,222.3C462.365,223.744 461.681,225.077 460.646,226.112C459.758,226.999 458.879,227.879 458.879,227.879C457.708,229.049 457.708,230.951 458.879,232.121C459.884,233.126 461.428,233.269 462.585,232.548ZM465.502,229.809C465.288,229.978 465.083,230.16 464.889,230.354L464.053,231.19L466.253,233.664C466.62,234.077 467.252,234.114 467.665,233.747C468.077,233.381 468.114,232.748 467.748,232.336L465.502,229.809ZM462.766,226.731C462.548,227.009 462.312,227.274 462.06,227.526C461.173,228.414 460.293,229.293 460.293,229.293C459.903,229.683 459.903,230.317 460.293,230.707C460.684,231.097 461.317,231.097 461.707,230.707C461.707,230.707 462.587,229.828 463.475,228.94C463.697,228.718 463.929,228.508 464.172,228.312L462.766,226.731ZM465.256,218.499L464.577,222.625C464.443,223.434 464.201,224.216 463.86,224.951L465.878,227.222C466.663,226.838 467.504,226.567 468.376,226.424L472.502,225.744L465.256,218.499ZM465.293,215.707C464.903,215.317 464.903,214.683 465.293,214.293C465.684,213.903 466.317,213.903 466.707,214.293C466.707,214.293 476.707,224.293 476.707,224.293C477.098,224.683 477.098,225.317 476.707,225.707C476.317,226.097 475.684,226.097 475.293,225.707C475.293,225.707 465.293,215.707 465.293,215.707Z"/><path d="M484.736,227L491.513,227C492.749,230.494 496.084,233 500,233C504.967,233 509,228.967 509,224C509,219.033 504.967,215 500,215C496.084,215 492.749,217.506 491.513,221L484.736,221C484.47,219.512 484.011,218.092 483.386,216.765L487.241,212.943C487.488,212.98 487.742,213 488,213C490.443,213 493.557,213 496,213C498.761,213 501,210.761 501,208L501,200C501,197.239 498.761,195 496,195C493.557,195 490.443,195 488,195C485.239,195 483,197.239 483,200C483,202.443 483,205.557 483,208C483,208.222 483.015,208.441 483.043,208.656L479.853,211.818C476.79,208.837 472.608,207 468,207C458.617,207 451,214.617 451,224C451,227.926 452.334,231.543 454.573,234.423C454.912,234.859 455.541,234.937 455.976,234.599C456.412,234.26 456.491,233.631 456.152,233.195C454.176,230.654 453,227.464 453,224C453,215.721 459.721,209 468,209C476.279,209 483,215.721 483,224C483,232.279 476.279,239 468,239C464.536,239 461.346,237.824 458.805,235.848C458.369,235.509 457.74,235.588 457.401,236.024C457.063,236.459 457.141,237.088 457.577,237.427C460.457,239.666 464.074,241 468,241C472.651,241 476.868,239.128 479.94,236.097L483.057,239.241C483.02,239.489 483,239.742 483,240L483,248C483,250.761 485.239,253 488,253C490.443,253 493.557,253 496,253C498.761,253 501,250.761 501,248C501,245.557 501,242.443 501,240C501,237.239 498.761,235 496,235C493.557,235 490.443,235 488,235C487.777,235 487.558,235.015 487.344,235.043L483.444,231.11C484.04,229.818 484.479,228.44 484.736,227ZM496.9,245C496.436,247.281 494.417,249 492,249C489.583,249 487.564,247.281 487.1,245L485,245L485,248C485,249.657 486.343,251 488,251C488,251 496,251 496,251C497.657,251 499,249.657 499,248L499,245L496.9,245ZM492,241C493.656,241 495,242.344 495,244C495,245.656 493.656,247 492,247C490.344,247 489,245.656 489,244C489,242.344 490.344,241 492,241ZM499,243L499,240C499,238.343 497.657,237 496,237C496,237 488,237 488,237C486.343,237 485,238.343 485,240L485,243L487.1,243C487.564,240.719 489.583,239 492,239C494.417,239 496.436,240.719 496.9,243L499,243ZM482.453,232.95C482.095,233.527 481.703,234.081 481.28,234.609L483.854,237.204C484.231,236.647 484.717,236.17 485.281,235.803L482.453,232.95ZM500,217C503.863,217 507,220.137 507,224C507,227.863 503.863,231 500,231C496.137,231 493,227.863 493,224C493,220.137 496.137,217 500,217ZM484.971,223C484.99,223.33 485,223.664 485,224C485,224.336 484.99,224.67 484.971,225L491.055,225C491.019,224.671 491,224.338 491,224C491,223.662 491.019,223.329 491.055,223L484.971,223ZM483.803,210.718L481.203,213.296C481.628,213.819 482.023,214.369 482.385,214.941L485.204,212.146C484.647,211.769 484.169,211.283 483.803,210.718ZM499,200L499,208C499,209.657 497.657,211 496,211C496,211 488,211 488,211C486.343,211 485,209.657 485,208C485,208 485,200 485,200C485,198.343 486.343,197 488,197C488,197 496,197 496,197C497.657,197 499,198.343 499,200Z"/></g></svg>